PathFileType	4	(X/Y/Z)	/home/abdul/Desktop/myosuite/custom_workspace/IK/output/S3_12_2.trc
DataRate	CameraRate	NumFrames	NumMarkers	Units	OrigDataRate	OrigDataStartFrame	OrigNumFrames
200.0	200.0	39	3	mm	200.0	597	955
Frame#	Time	V_Shoulder			V_Elbow			V_Wrist		
		X1	Y1	Z1	X2	Y2	Z2	X3	Y3	Z3

597	2.98	-124.75717617391133	658.628696907595	314.2600792719675	-323.66778521103424	461.0599791172143	79.68542437889897	-123.87813377107335	254.5924706609964	115.56946398614721
598	2.985	-124.82150283847143	658.543617495594	314.1559130210405	-323.6137350767052	461.16685146882867	79.3654955227077	-124.04483050763949	254.48879619062103	114.4204443793437
599	2.99	-124.88637643219903	658.4600187455102	314.052190493052	-323.55970407102166	461.27336228752233	79.04818172719625	-124.20735411421322	254.38936607863212	113.2849836055509
600	2.995	-124.95175095007595	658.3778779410408	313.94896295825663	-323.50571372221737	461.3795001076035	78.73348930135734	-124.36566809679744	254.29403092164074	112.16280661546567
601	3.0	-125.01757927781016	658.2971718420614	313.8462811305516	-323.45178579282265	461.48525146396145	78.42142801739321	-124.5197429785859	254.20265165008578	111.05365108942752
602	3.005	-125.08381327107061	658.2178767936743	313.74419512332594	-323.3979422873692	461.59060100949785	78.11201108383545	-124.66955625502327	254.11509907240952	109.95726837854369
603	3.01	-125.15040383690429	658.1399688315822	313.6427544068465	-323.34420545682076	461.69553163354067	77.805255105056	-124.81509232526139	254.03125341480077	108.87342436137513
604	3.015	-125.21730101714051	658.0634237835078	313.54200776709007	-323.29059779942804	461.80002458082697	77.50118002719745	-124.95634240055267	253.95100385796738	107.8019002122083
605	3.02	-125.2844540735832	657.9882173663963	313.44200326592596	-323.237142057738	461.90405957066537	77.19980907058698	-125.09330439026365	253.87424807226586	106.74249307724668
606	3.025	-125.35181157478848	657.9143252791695	313.34278820254764	-323.1838612115224	462.0076149159046	76.90116864873627	-125.22598276632812	253.80089175238697	105.69501665539431
607	3.03	-125.41932148422148	657.8417232908151	313.24440907604526	-323.13077846642506	462.11066764136297	76.60528827406894	-125.35438840708949	253.73084815267748	104.6593016806705
608	3.035	-125.4869312495844	657.7703873236261	313.14691154901357	-323.077917238165	462.2131936013916	76.31220045055811	-125.47853842160252	253.66403762406964	103.63519630369018
609	3.04	-125.55458789310642	657.7002935314246	313.05034041208376	-323.0253011321729	462.3151675962738	76.02194055349854	-125.59845595557715	253.60038715348884	102.62256637006669
610	3.045	-125.62223810258486	657.6314183726306	312.9547395492708	-322.9729539185753	462.4165634871829	75.73454669668001	-125.71416998024847	253.5398299065249	101.62129559404059
611	3.05	-125.68982832296729	657.5637386780602	312.8601519040289	-322.92089950248635	462.5173543094512	75.45005958727302	-125.82571506554801	253.4823047740723	100.63128562611034
612	3.055	-125.75730484826435	657.4972317133615	312.7666194459103	-322.869161889603	462.6175123839247	75.1685223687816	-125.93313113903002	253.42775592358134	99.65245601393312
613	3.06	-125.82461391358481	657.431875236023	312.67418313772913	-322.81776514714454	462.7170094262041	74.88998045246299	-126.03646323207246	253.3761323555063	98.68474405627651
614	3.065	-125.89170178708618	657.367647546907	312.58288290313436	-322.7667333602168	462.8158166535992	74.61448133765856	-126.1357612149262	253.32738746549455	97.72810455033127
615	3.07	-125.95851486163595	657.3045275362932	312.4927575945069	-322.7160905837194	462.91390488964635	74.34207442152513	-126.23107952222594	253.28147861282594	96.78250943323805
616	3.075	-126.02499974598307	657.2424947244308	312.4038449611016	-322.66586078995795	463.0112446660645	74.07281079870083	-126.32247687060305	253.23836669558938	95.84794731923478
617	3.08	-126.09110335524186	657.1815292966303	312.3161816173642	-322.6160678121577	463.1078063220456	73.80674305148341	-126.41001597005383	253.1980157330697	94.92442293439237
618	3.085	-126.15677300049508	657.1216121329367	312.2298030113655	-322.56673528411204	463.2035601008	73.5439250311426	-126.4937632307167	253.1603924558109	94.01195645147095
619	3.09	-126.22195647732819	657.062724832458	312.1447433933038	-322.517886576234	463.2984762432953	73.28441163103058	-126.57378846669923	253.1254659038242	93.11058272799309
620	3.095	-126.28660215311207	657.0048497324342	312.0610357840397	-322.46954472831226	463.3925250791448	73.02825855219585	-126.65016459856963	253.09320703341515	92.22035045119114
621	3.1	-126.35065905285609	656.9479699221603	311.978711943641	-322.4217323793007	463.48567711462385	72.77552206224597	-126.72296735608971	253.0635883331185	91.34132119403783
622	3.105	-126.41407694346147	656.8920692518867	311.8978023399261	-322.3744716945006	463.5779031178	72.52625874824238	-126.79227498271695	253.0365834492429	90.47356838710948
623	3.11	-126.4768064162098	656.837132336847	311.8183361170108	-322.3277842905167	463.66917420078346	72.28052526444739	-126.85816794334244	253.01216682154927	89.61717621155427
624	3.115	-126.53879896732947	656.7831445565718	311.74034106387427	-322.28169115839296	463.75946189910894	72.03837807577688	-126.92072863666152	252.9903133296043	88.77223841894221
625	3.12	-126.60000707648948	656.7300920496704	311.66384358297705	-322.2362125853492	463.8487382482733	71.79987319784425	-126.98004111349387	252.97099795037195	87.93885708425165
626	3.125	-126.66038428307786	656.6779617042706	311.58886865897585	-322.1913680755584	463.9369758574582	71.56506593450999	-127.03619080228191	252.9541954276259	87.11714129869742
627	3.13	-126.71988526012926	656.6267411443256	311.515439827596	-322.14717627041523	464.02414798047033	71.33401061387669	-127.08926424290114	252.93987995378262	86.30720580952371
628	3.135	-126.77846588577476	656.5764187120035	311.4435791447333	-322.1036548687557	464.1102285839379	71.10676032369251	-127.13934882981451	252.92802486476916	85.50916961426694
629	3.14	-126.83608331209435	656.5269834463946	311.37330715587365	-322.06082054749356	464.1951924127975	70.88336664714538	-127.18653256549652	252.91860234855127	84.72315451733641
630	3.145	-126.89269603126111	656.478425058771	311.3046428659308	-322.01868888314357	464.2790150531072	70.6638794000452	-127.23090382494215	252.91158316795347	83.94928365706048
631	3.15	-126.9482639388746	656.4307339046497	311.23760370961367	-321.9772742746977	464.3616729922144	70.44834637040397	-127.27255113196208	252.90693639840265	83.18768001160012
632	3.155	-127.00274839438843	656.3839009529152	311.1722055224482	-321.93658986832	464.44314367630545	70.2368130614303	-127.31156294784981	252.90462918122236	82.43846489233886
633	3.16	-127.05611227854666	656.337917752261	311.1084625125899	-321.8966474843177	464.5234055653525	70.02932243895938	-127.34802747289123	252.90462649309399	81.70175643351305
634	3.165	-127.10832004775052	656.2927763952197	311.0463872335708	-321.85745754683563	464.60243818546667	69.82591468433782	-127.38203246106988	252.90689093228139	80.97766808695074
635	3.17	-127.1593377852865	656.2484694800493	310.98599055813804	-321.8190290167099	464.6802221786568	69.62662695377756	-127.41366504820769	252.91138252219255	80.26630713083618
